<svg width="145" height="180" viewBox="0 0 145 180" fill="none" xmlns="http://www.w3.org/2000/svg">
<path fill-rule="evenodd" clip-rule="evenodd" d="M59.9324 3.94598C56.759 1.87436 52.507 2.76754 50.4354 5.94096C41.1918 20.1007 33.9907 34.7909 26.9568 49.14C23.5229 56.1451 20.1289 63.069 16.5565 69.8102C14.7819 73.1588 16.0579 77.3119 19.4066 79.0865C22.7552 80.861 26.9083 79.585 28.6829 76.2364C32.6891 68.6766 36.2759 61.3488 39.7937 54.1618C46.587 40.2832 53.1233 26.9295 61.9274 13.443C63.999 10.2696 63.1058 6.01761 59.9324 3.94598Z" fill="#BB4700"/>
<path fill-rule="evenodd" clip-rule="evenodd" d="M98.1346 61.5585C95.3164 59.0248 90.9777 59.2555 88.444 62.0737L49.9071 104.938C47.3734 107.756 47.604 112.095 50.4222 114.628C53.2405 117.162 57.5791 116.931 60.1128 114.113L98.6497 71.2491C101.183 68.4309 100.953 64.0923 98.1346 61.5585Z" fill="#BB4700"/>
<path fill-rule="evenodd" clip-rule="evenodd" d="M59.238 140.765C58.2028 144.41 60.319 148.205 63.9646 149.24C76.0209 152.663 90.3217 149.978 102.952 146.228C111.944 143.558 121.051 140.02 128.708 137.045C131.873 135.815 134.791 134.682 137.35 133.746C140.91 132.444 142.739 128.503 141.437 124.944C140.136 121.385 136.195 119.555 132.636 120.857C129.611 121.963 126.412 123.207 123.075 124.504C115.624 127.402 107.482 130.567 99.0456 133.072C86.7518 136.722 75.7402 138.317 67.7134 136.038C64.0678 135.003 60.2732 137.119 59.238 140.765Z" fill="#BB4700"/>
</svg>
